# xmcd CD database file
#
# Track frame offsets:
#	150
#	25958
#	56375
#	69605
#	90008
#	103844
#	126542
#	141164
#	158768
#	173579
#	197471
#	214580
#
# Disc length: 3106 seconds
#
# Revision: 0
# Processed by: cddbd v1.4PL0 Copyright (c) Steve Scherf et al.
# Submitted via: CDex 1.50Beta7
#
DISCID=9d0c200c
DTITLE=Peter Materna - Konzert für Trio WoO
DYEAR=1999
DGENRE=Jazz
TTITLE0=Konzert für Trio WoO Andante
TTITLE1=Frühling
TTITLE2=Konzert für Trio WoO Allegro
TTITLE3=Sommer
TTITLE4=Konzert für Trio WoO Presto, Varianten
TTITLE5=Herbst
TTITLE6=Konzert für Trio WoO Adagio
TTITLE7=Winter
TTITLE8=20 - 21
TTITLE9=The Cat
TTITLE10=Konzert für Trio WoO Prestissimo, Variationen
TTITLE11=Konzert für Trio WoO Andante - Variationen
EXTD=YEAR: 1999
EXTT0=
EXTT1=
EXTT2=
EXTT3=
EXTT4=
EXTT5=
EXTT6=
EXTT7=
EXTT8=
EXTT9=
EXTT10=
EXTT11=
PLAYORDER=
